# AST/ASF file generated using VICON BodyLanguage
# -----------------------------------------------
:version 1.10
:name VICON
:units
  mass 1.0
  length 0.45
  angle deg
:documentation
   .ast/.asf automatically generated from VICON data using
   VICON BodyBuilder and BodyLanguage model FoxedUp or BRILLIANT.MOD
:root
   order TX TY TZ RX RY RZ
   axis XYZ
   position 0 0 0  
   orientation 0 0 0 
:bonedata
  begin
     id 1 
     name lhipjoint
     direction 0.558404 -0.748506 0.357664 
     length 2.4234 
     axis 0 0 0  XYZ
  end
  begin
     id 2 
     name lfemur
     direction 0.34202 -0.939693 0  
     length 7.14567  
     axis 0 0 20  XYZ
    dof rx ry rz
    limits (-160.0 20.0)
           (-70.0 70.0)
           (-60.0 70.0)
  end
  begin
     id 3 
     name ltibia
     direction 0.34202 -0.939693 0   
     length 8.13956   
     axis 0 0 20   XYZ
    dof rx
    limits (-10.0 170.0)
  end
  begin
     id 4 
     name lfoot
     direction 0.0791314 -0.217412 0.972867   
     length 2.00134   
     axis -90 7.62852e-016 20   XYZ
    dof rx rz
    limits (-45.0 90.0)
           (-70.0 20.0)
  end
  begin
     id 5 
     name ltoes
     direction 1.53547e-011 -4.21922e-011 1   
     length 1.00735   
     axis -90 7.62852e-016 20   XYZ
    dof rx
    limits (-90.0 20.0)
  end
  begin
     id 6 
     name rhipjoint
     direction -0.496392 -0.78327 0.374276   
     length 2.31584  
     axis 0 0 0  XYZ 
  end
  begin
     id 7 
     name rfemur
     direction -0.34202 -0.939693 0   
     length 7.47417   
     axis 0 0 -20   XYZ
    dof rx ry rz
    limits (-160.0 20.0)
           (-70.0 70.0)
           (-70.0 60.0)
  end
  begin
     id 8 
     name rtibia
     direction -0.34202 -0.939693 0   
     length 7.69071   
     axis 0 0 -20   XYZ
    dof rx
    limits (-10.0 170.0)
 end
 begin
     id 9 
     name rfoot
     direction -0.103069 -0.28318 0.953512   
     length 2.16135  
     axis -90 -7.62852e-016 -20   XYZ
    dof rx rz
    limits (-45.0 90.0)
           (-20.0 70.0)
  end
  begin
     id 10 
     name rtoes
     direction -1.53581e-011 -4.21904e-011 1   
     length 1.07867   
     axis -90 -7.62852e-016 -20   XYZ
    dof rx
    limits (-90.0 20.0)
  end
  begin
     id 11 
     name lowerback
     direction -0.0258961 0.994776 -0.0987407   
     length 2.19412   
     axis 0 0 0   XYZ
    dof rx ry rz
    limits (-20.0 45.0)
           (-30.0 30.0)
           (-30.0 30.0)
  end
  begin
     id 12 
     name upperback
     direction 0.0402454 0.999185 0.00320666   
     length 2.18445   
     axis 0 0 0   XYZ
    dof rx ry rz
    limits (-20.0 45.0)
           (-30.0 30.0)
           (-30.0 30.0)
  end
  begin
     id 13 
     name thorax
     direction 0.0519376 0.997415 0.0496558   
     length 2.21487   
     axis 0 0 0   XYZ
    dof rx ry rz
    limits (-20.0 45.0)
           (-30.0 30.0)
           (-30.0 30.0)
  end
  begin
     id 14 
     name lowerneck
     direction -0.0921276 0.983211 0.157506   
     length 1.61201   
     axis 0 0 0   XYZ
    dof rx ry rz
    limits (-20.0 45.0)
           (-30.0 30.0)
           (-30.0 30.0)
  end
  begin
     id 15 
     name upperneck
     direction 0.0820814 0.98162 -0.172292   
     length 1.65275   
     axis 0 0 0   XYZ
    dof rx ry rz
    limits (-20.0 45.0)
           (-30.0 30.0)
           (-30.0 30.0)
  end
  begin
     id 16
     name head
     direction 0.0336554 0.996413 -0.0776455  
     length 1.66415  
     axis 0 0 0   XYZ
    dof rx ry rz
    limits (-20.0 45.0)
           (-30.0 30.0)
           (-30.0 30.0)
  end
  begin
     id 17 
     name lclavicle
     direction 0.94696 0.284418 -0.149576  
     length 3.41447  
     axis 0 0 0   XYZ
    dof ry rz
    limits (-20.0 10.0)
           (0.0 20.0)
  end
  begin
     id 18 
     name lhumerus
     direction 1 -0.000130264 -9.81312e-005   
     length 5.19964   
     axis 180 -30 -90   XYZ
    dof rx ry rz
    limits (-60.0 90.0)
           (-90.0 90.0)
           (-90.0 90.0)
  end
  begin
     id 19
     name lradius
     direction 1 -4.48961e-011 1.43854e-026   
     length 3.32189   
     axis 180 -30 -90   XYZ
    dof rx
    limits (-10.0 170.0)
  end
  begin
     id 20
     name lwrist
     direction 1 -4.48958e-011 3.1502e-026   
     length 1.66095   
     axis -1.97692e-014 90 90   XYZ
    dof ry
    limits (-180.0 0.0)
 end
  begin
     id 21 
     name lhand
     direction 1 -4.48927e-011 6.3004e-026   
     length 0.645616   
     axis -4.02019e-014 90 90   XYZ
    dof rx rz
    limits (-90.0 90.0)
           (-45.0 45.0)
  end
  begin
     id 22 
     name lfingers
     direction 1 -4.4904e-011 1.26008e-025   
     length 0.520512   
     axis -8.04039e-014 90 90   XYZ
    dof rx
    limits (0.0 90.0)
  end
  begin
     id 23
     name lthumb
     direction 0.707107 -6.34947e-011 0.707107   
     length 0.747354   
     axis -90 45 2.85299e-015   XYZ
    dof rx rz
    limits (-45.0 45.0)
           (-45.0 45.0)
  end
  begin
     id 24 
     name rclavicle
     direction -0.909391 0.383475 -0.161107   
     length 3.25176  
     axis 0 0 0   XYZ 
    dof ry rz
    limits (-10.0 20.0)
           (-20.0 0.0)
  end
  begin
     id 25 
     name rhumerus
     direction -1 -4.48965e-011 -1.81384e-027  
     length 5.6595   
     axis 180 30 90   XYZ
    dof rx ry rz
    limits (-90.0 60.0)
           (-90.0 90.0)
           (-90.0 90.0)
  end
  begin
     id 26 
     name rradius
     direction -1 -4.48996e-011 -8.09397e-027   
     length 3.37604   
     axis 180 30 90   XYZ
    dof rx
    limits (-10.0 170.0)
  end
  begin
     id 27 
     name rwrist
     direction -1 -4.48927e-011 -1.56669e-026   
     length 1.68802   
     axis 1.21142e-014 -90 -90   XYZ
    dof ry
    limits (-180.0 0.0)
  end
  begin
     id 28
     name rhand
     direction -1 -4.48912e-011 -3.13339e-026   
     length 0.824702   
     axis 1.99937e-014 -90 -90   XYZ
    dof rx rz
    limits (-90.0 90.0)
           (-45.0 45.0)
  end
  begin
     id 29
     name rfingers
     direction -1 -4.49011e-011 -6.26677e-026   
     length 0.664896   
     axis 3.99874e-014 -90 -90   XYZ
    dof rx
    limits (0.0 90.0)
  end
  begin
     id 30
     name rthumb
     direction -0.707107 -6.34931e-011 0.707107   
     length 0.954662   
     axis -90 -45 -2.85299e-015   XYZ
    dof rx rz
    limits (-45.0 45.0)
           (-45.0 45.0)
  end
:hierarchy
  begin
    root lhipjoint rhipjoint lowerback
    lhipjoint lfemur
    lfemur ltibia
    ltibia lfoot
    lfoot ltoes
    rhipjoint rfemur
    rfemur rtibia
    rtibia rfoot
    rfoot rtoes
    lowerback upperback
    upperback thorax
    thorax lowerneck lclavicle rclavicle
    lowerneck upperneck
    upperneck head
    lclavicle lhumerus
    lhumerus lradius
    lradius lwrist
    lwrist lhand lthumb
    lhand lfingers
    rclavicle rhumerus
    rhumerus rradius
    rradius rwrist
    rwrist rhand rthumb
    rhand rfingers
  end

#!OML:ASF F:\VICON\USERDATA\INSTALL\rory3\rory3.ASF
:FULLY-SPECIFIED
:DEGREES
1
root 11.3942 17.3577 -36.7611 20.9827 -49.0413 -10.1247
lowerback 8.59546 1.94677 -1.34996
upperback 0.483754 2.57217 2.95982
thorax -4.51671 1.321 3.52346
lowerneck -15.2396 2.47155 -7.74075
upperneck 22.2557 3.48289 7.55979
head 9.20479 1.77285 4.33281
rclavicle 9.78426e-014 1.57956e-014
rhumerus -34.475 -12.047 -73.7927
rradius 42.8133
rwrist -15.9127
rhand -11.0944 17.4763
rfingers 7.12502
rthumb 14.9296 -11.9656
lclavicle 9.78426e-014 1.57956e-014
lhumerus -27.4597 17.061 74.997
lradius 30.164
lwrist -6.84707
lhand -4.01151 30.4576
lfingers 7.12502
lthumb 21.7429 59.2565
rfemur -20.5369 0.639504 18.2355
rtibia 58.5255
rfoot -9.37586 -10.8255
rtoes 13.2965
lfemur -28.3091 7.37713 -20.4499
ltibia 51.9692
lfoot -22.5066 20.5916
ltoes -59.5134
2
root 11.3757 17.3519 -36.6601 21.1104 -48.9814 -10.1532
lowerback 8.75066 1.91973 -1.36798
upperback 0.449949 2.53316 2.90963
thorax -4.6346 1.30318 3.48163
lowerneck -15.4197 2.49328 -7.462
upperneck 22.4111 3.46552 7.48895
head 9.30156 1.77896 4.2709
rclavicle 1.15506e-013 -1.74931e-014
rhumerus -34.5784 -11.9001 -74.0348
rradius 43.1799
rwrist -16.1081
rhand -11.2558 17.4563
rfingers 7.12502
rthumb 14.7741 -11.9971
lclavicle 1.15506e-013 -1.74931e-014
lhumerus -27.117 16.8279 74.9346
lradius 30.2268
lwrist -7.15066
lhand -3.79559 30.6826
lfingers 7.12502
lthumb 21.9502 59.4573
rfemur -21.2989 0.535673 18.0962
rtibia 59.8247
rfoot -9.01497 -10.5332
rtoes 14.4405
lfemur -28.0301 7.64662 -20.6343
ltibia 51.7898
lfoot -22.8496 20.6171
ltoes -59.5591
3
root 11.356 17.3519 -36.5603 21.207 -48.8659 -10.0347
lowerback 8.88351 1.81977 -1.52581
upperback 0.356032 2.38696 2.90718
thorax -4.80318 1.23769 3.58357
lowerneck -15.4416 2.56004 -7.38693
upperneck 22.4367 3.53291 7.51374
head 9.30937 1.81895 4.27593
rclavicle -2.64632e-014 2.04748e-014
rhumerus -34.662 -11.6595 -74.177
rradius 43.448
rwrist -16.0913
rhand -11.382 17.4002
rfingers 7.12502
rthumb 14.6525 -12.0621
lclavicle -2.64632e-014 2.04748e-014
lhumerus -27.0145 16.79 74.847
lradius 30.4198
lwrist -7.30589
lhand -3.10746 31.1283
lfingers 7.12502
lthumb 22.6108 59.824
rfemur -22.0516 0.32377 17.9194
rtibia 60.8956
rfoot -8.15719 -10.5636
rtoes 14.9648
lfemur -27.6796 7.56755 -20.9042
ltibia 51.3241
lfoot -22.766 20.6639
ltoes -59.5192
4
root 11.3308 17.3673 -36.46 21.3216 -48.9 -9.92373
lowerback 8.93107 1.69526 -1.82035
upperback 0.305958 2.19516 2.95678
thorax -4.8812 1.15218 3.82717
lowerneck -15.2844 2.68055 -7.61024
upperneck 22.2362 3.73002 7.61328
head 9.18521 1.90537 4.35644
rclavicle 1.4197e-013 1.19271e-014
rhumerus -34.6691 -11.0791 -74.3197
rradius 43.7289
rwrist -15.9806
rhand -11.3477 17.361
rfingers 7.12502
rthumb 14.6855 -12.0989
lclavicle 1.4197e-013 1.19271e-014
lhumerus -27.1173 17.2149 74.6415
lradius 30.7316
lwrist -7.90726
lhand -2.23174 31.2045
lfingers 7.12502
lthumb 23.4511 59.7953
rfemur -22.8299 0.243551 17.7463
rtibia 61.9845
rfoot -6.99871 -10.7698
rtoes 15.2736
lfemur -27.3227 7.21005 -21.178
ltibia 50.9385
lfoot -22.6113 20.8215
ltoes -59.4978
5
root 11.2995 17.3944 -36.3487 21.3295 -49.1791 -9.85697
lowerback 8.99607 1.84642 -2.02668
upperback 0.453117 2.36395 2.78338
thorax -4.77828 1.23472 3.73877
lowerneck -15.6584 2.58323 -7.39635
upperneck 22.1466 3.56746 7.63373
head 9.24278 1.85691 4.31814
rclavicle -6.90528e-014 -3.53837e-014
rhumerus -34.6107 -11.3436 -74.5405
rradius 44.0284
rwrist -15.8382
rhand -11.3566 17.3583
rfingers 7.12502
rthumb 14.677 -12.1022
lclavicle -6.90528e-014 -3.53837e-014
lhumerus -26.4025 16.4606 74.84
lradius 30.82
lwrist -6.71999
lhand -3.33766 31.1378
lfingers 7.12502
lthumb 22.3899 59.8603
rfemur -23.4088 0.404861 17.4959
rtibia 62.9628
rfoot -5.993 -10.9846
rtoes 17.3963
lfemur -26.69 6.62902 -21.5174
ltibia 50.487
lfoot -21.796 21.0948
ltoes -59.5485
6
root 11.2743 17.3645 -36.2514 21.2183 -49.4107 -9.69052
lowerback 8.96806 1.19327 -2.75464
upperback 0.376406 1.4466 3.33974
thorax -4.80143 0.804984 4.8651
lowerneck -14.8965 3.26989 -8.67562
upperneck 22.0106 4.79911 7.59611
head 8.91203 2.31514 4.61584
rclavicle 5.91509e-014 2.84262e-014
rhumerus -34.2882 -8.58788 -74.7526
rradius 44.1275
rwrist -15.9986
rhand -11.0731 17.4923
rfingers 7.12502
rthumb 14.9501 -11.9481
lclavicle 5.91509e-014 2.84262e-014
lhumerus -27.471 18.5382 74.4317
lradius 31.2272
lwrist -6.51124
lhand -3.30126 31.1497
lfingers 7.12502
lthumb 22.4248 59.8679
rfemur -24.1512 0.509101 17.1921
rtibia 64.1665
rfoot -5.56651 -11.4739
rtoes 20.7754
lfemur -26.3819 7.57993 -21.919
ltibia 50.3376
lfoot -22.8282 20.8119
ltoes -59.448
7
root 11.2478 17.3697 -36.1567 21.315 -49.2404 -9.45885
lowerback 8.9822 1.11511 -3.00377
upperback 0.329185 1.31731 3.31227
thorax -4.85037 0.748852 4.99584
lowerneck -15.0343 3.23126 -8.55805
upperneck 22.0556 4.75275 7.48624
head 8.96464 2.2911 4.56049
rclavicle 4.45526e-014 -4.79568e-014
rhumerus -34.3158 -8.48462 -74.8383
rradius 44.3332
rwrist -16.0143
rhand -11.0807 17.627
rfingers 7.12502
rthumb 14.9427 -11.8139
lclavicle 4.45526e-014 -4.79568e-014
lhumerus -27.0811 18.3627 74.4511
lradius 31.3352
lwrist -6.59801
lhand -3.06535 31.019
lfingers 7.12502
lthumb 22.6512 59.7098
rfemur -25.0202 0.299979 17.0944
rtibia 65.1824
rfoot -5.73868 -12.2445
rtoes 22.5153
lfemur -26.314 7.50782 -22.2089
ltibia 50.1156
lfoot -22.9009 20.666
ltoes -59.4311
8
root 11.2285 17.3722 -36.0785 21.7478 -48.6792 -9.26085
lowerback 8.87624 0.943088 -3.12642
upperback 0.12936 1.08305 3.33467
thorax -4.97758 0.643847 5.12234
lowerneck -14.9178 3.21488 -8.70593
upperneck 21.9666 4.71174 7.68603
head 8.90505 2.28273 4.64204
rclavicle -6.68413e-014 -1.05356e-014
rhumerus -34.3851 -8.58699 -74.8885
rradius 44.4836
rwrist -15.8915
rhand -11.1957 17.7275
rfingers 7.12502
rthumb 14.832 -11.7216
lclavicle -6.68413e-014 -1.05356e-014
lhumerus -26.7172 17.9122 74.5919
lradius 31.4239
lwrist -6.33388
lhand -3.49199 30.6948
lfingers 7.12502
lthumb 22.2417 59.435
rfemur -26.324 -0.0936895 17.2913
rtibia 66.351
rfoot -6.0773 -12.9513
rtoes 22.5105
lfemur -26.8058 7.31345 -22.3188
ltibia 50.172
lfoot -22.7934 20.665
ltoes -59.3737
